<?xml version="1.0" encoding="UTF-8" standalone="no"?>
<!DOCTYPE svg PUBLIC "-//W3C//DTD SVG 1.1//EN"
 "http://www.w3.org/Graphics/SVG/1.1/DTD/svg11.dtd">
<!-- Generated by graphviz version 2.40.1 (20161225.0304)
 -->
<!-- Title: tens Pages: 1 -->
<svg width="2908pt" height="977pt"
 viewBox="0.00 0.00 2907.61 977.00" xmlns="http://www.w3.org/2000/svg" xmlns:xlink="http://www.w3.org/1999/xlink">
<g id="graph0" class="graph" transform="scale(1 1) rotate(0) translate(4 973)">
<title>tens</title>
<polygon fill="#ffffff" stroke="transparent" points="-4,4 -4,-973 2903.6109,-973 2903.6109,4 -4,4"/>
<g id="clust1" class="cluster">
<title>cluster_status_key</title>
<polygon fill="none" stroke="#000000" stroke-dasharray="1,5" points="8,-700 8,-961 126,-961 126,-700 8,-700"/>
<text text-anchor="middle" x="67" y="-945.8" font-family="Times,serif" font-size="14.00" fill="#000000">status_key</text>
</g>
<g id="clust2" class="cluster">
<title>cluster_color_key</title>
<polygon fill="none" stroke="#000000" stroke-dasharray="1,5" points="134,-8 134,-961 292,-961 292,-8 134,-8"/>
<text text-anchor="middle" x="213" y="-945.8" font-family="Times,serif" font-size="14.00" fill="#000000">color_key</text>
</g>
<g id="clust3" class="cluster">
<title>cluster_tens_base</title>
<g id="a_clust3"><a xlink:href="https://docs.google.com/document/d/1qYkBiUN_XgFudSghjHKeIuyT0OMZuRz7uI5yUJP2KwM/edit#bookmark=id.bz11i8nqvo4u" xlink:title="tens_base">
<polygon fill="none" stroke="#000000" stroke-dasharray="1,5" points="2158,-886 2158,-961 2332,-961 2332,-886 2158,-886"/>
<text text-anchor="middle" x="2245" y="-945.8" font-family="Times,serif" font-size="14.00" fill="#00ffff">tens_base</text>
</a>
</g>
</g>
<g id="clust4" class="cluster">
<title>cluster_tens_outerchannel</title>
<g id="a_clust4"><a xlink:href="https://docs.google.com/document/d/1qYkBiUN_XgFudSghjHKeIuyT0OMZuRz7uI5yUJP2KwM/edit#bookmark=id.wv4qalablcmo" xlink:title="tens_outerchannel">
<polygon fill="none" stroke="#000000" stroke-dasharray="1,5" points="332,-462 332,-847 646,-847 646,-462 332,-462"/>
<text text-anchor="middle" x="489" y="-831.8" font-family="Times,serif" font-size="14.00" fill="#00ffff">tens_outerchannel</text>
</a>
</g>
</g>
<g id="clust5" class="cluster">
<title>cluster_tens_boltblock</title>
<g id="a_clust5"><a xlink:href="https://docs.google.com/document/d/1qYkBiUN_XgFudSghjHKeIuyT0OMZuRz7uI5yUJP2KwM/edit#bookmark=id.odymg55qybni" xlink:title="tens_boltblock">
<polygon fill="none" stroke="#000000" stroke-dasharray="1,5" points="1506,-379 1506,-878 2348,-878 2348,-379 1506,-379"/>
<text text-anchor="middle" x="1927" y="-862.8" font-family="Times,serif" font-size="14.00" fill="#00ffff">tens_boltblock</text>
</a>
</g>
</g>
<g id="clust6" class="cluster">
<title>cluster_tens_boltblock_base</title>
<g id="a_clust6"><a xlink:href="https://docs.google.com/document/d/1qYkBiUN_XgFudSghjHKeIuyT0OMZuRz7uI5yUJP2KwM/edit#bookmark=id.odymg55qybni" xlink:title="tens_boltblock_base">
<polygon fill="none" stroke="#000000" stroke-dasharray="1,5" points="1994,-700 1994,-847 2256,-847 2256,-700 1994,-700"/>
<text text-anchor="middle" x="2125" y="-831.8" font-family="Times,serif" font-size="14.00" fill="#00ffff">tens_boltblock_base</text>
</a>
</g>
</g>
<g id="clust7" class="cluster">
<title>cluster_tens_boltblock_bolthole</title>
<g id="a_clust7"><a xlink:href="https://docs.google.com/document/d/1qYkBiUN_XgFudSghjHKeIuyT0OMZuRz7uI5yUJP2KwM/edit#bookmark=id.qsemmeqf6eoo" xlink:title="tens_boltblock_bolthole">
<polygon fill="none" stroke="#000000" stroke-dasharray="1,5" points="1514,-462 1514,-692 1784,-692 1784,-462 1514,-462"/>
<text text-anchor="middle" x="1649" y="-676.8" font-family="Times,serif" font-size="14.00" fill="#00ffff">tens_boltblock_bolthole</text>
</a>
</g>
</g>
<g id="clust8" class="cluster">
<title>cluster_tens_boltblock_screwholes</title>
<g id="a_clust8"><a xlink:href="https://docs.google.com/document/d/1qYkBiUN_XgFudSghjHKeIuyT0OMZuRz7uI5yUJP2KwM/edit#bookmark=id.qjlb1oos8fgy" xlink:title="tens_boltblock_screwholes">
<polygon fill="none" stroke="#000000" stroke-dasharray="1,5" points="1792,-462 1792,-609 2086,-609 2086,-462 1792,-462"/>
<text text-anchor="middle" x="1939" y="-593.8" font-family="Times,serif" font-size="14.00" fill="#00ffff">tens_boltblock_screwholes</text>
</a>
</g>
</g>
<g id="clust10" class="cluster">
<title>cluster_tens_bottomblock</title>
<g id="a_clust10"><a xlink:href="https://docs.google.com/document/d/1qYkBiUN_XgFudSghjHKeIuyT0OMZuRz7uI5yUJP2KwM/edit#bookmark=id.36bie55jnofm" xlink:title="tens_bottomblock">
<polygon fill="none" stroke="#000000" stroke-dasharray="1,5" points="654,-379 654,-878 1498,-878 1498,-379 654,-379"/>
<text text-anchor="middle" x="1076" y="-862.8" font-family="Times,serif" font-size="14.00" fill="#00ffff">tens_bottomblock</text>
</a>
</g>
</g>
<g id="clust11" class="cluster">
<title>cluster_tens_bottomblock_base</title>
<g id="a_clust11"><a xlink:href="https://docs.google.com/document/d/1qYkBiUN_XgFudSghjHKeIuyT0OMZuRz7uI5yUJP2KwM/edit#bookmark=id.36bie55jnofm" xlink:title="tens_bottomblock_base">
<polygon fill="none" stroke="#000000" stroke-dasharray="1,5" points="1084,-617 1084,-847 1376,-847 1376,-617 1084,-617"/>
<text text-anchor="middle" x="1230" y="-831.8" font-family="Times,serif" font-size="14.00" fill="#00ffff">tens_bottomblock_base</text>
</a>
</g>
</g>
<g id="clust12" class="cluster">
<title>cluster_tens_bottomblock_mountholes</title>
<g id="a_clust12"><a xlink:href="https://docs.google.com/document/d/1qYkBiUN_XgFudSghjHKeIuyT0OMZuRz7uI5yUJP2KwM/edit#bookmark=id.e3m6qungdv" xlink:title="tens_bottomblock_mountholes">
<polygon fill="none" stroke="#000000" stroke-dasharray="1,5" points="662,-462 662,-609 976,-609 976,-462 662,-462"/>
<text text-anchor="middle" x="819" y="-593.8" font-family="Times,serif" font-size="14.00" fill="#00ffff">tens_bottomblock_mountholes</text>
</a>
</g>
</g>
<g id="clust13" class="cluster">
<title>cluster_tens_bottomblock_endholes</title>
<g id="a_clust13"><a xlink:href="https://docs.google.com/document/d/1qYkBiUN_XgFudSghjHKeIuyT0OMZuRz7uI5yUJP2KwM/edit#bookmark=id.l7gk8rdkorly" xlink:title="tens_bottomblock_endholes">
<polygon fill="none" stroke="#000000" stroke-dasharray="1,5" points="984,-462 984,-609 1278,-609 1278,-462 984,-462"/>
<text text-anchor="middle" x="1131" y="-593.8" font-family="Times,serif" font-size="14.00" fill="#00ffff">tens_bottomblock_endholes</text>
</a>
</g>
</g>
<g id="clust15" class="cluster">
<title>cluster_tens_spacer</title>
<g id="a_clust15"><a xlink:href="https://docs.google.com/document/d/1qYkBiUN_XgFudSghjHKeIuyT0OMZuRz7uI5yUJP2KwM/edit#bookmark=id.bh06dun9j2l6" xlink:title="tens_spacer">
<polygon fill="none" stroke="#000000" stroke-dasharray="1,5" points="2386,-617 2386,-847 2622,-847 2622,-617 2386,-617"/>
<text text-anchor="middle" x="2504" y="-831.8" font-family="Times,serif" font-size="14.00" fill="#00ffff">tens_spacer</text>
</a>
</g>
</g>
<g id="clust16" class="cluster">
<title>cluster_tens_sprocket</title>
<g id="a_clust16"><a xlink:href="https://docs.google.com/document/d/1qYkBiUN_XgFudSghjHKeIuyT0OMZuRz7uI5yUJP2KwM/edit#bookmark=id.x49jbaidbar" xlink:title="tens_sprocket">
<polygon fill="none" stroke="#000000" stroke-dasharray="1,5" points="2630,-617 2630,-847 2868,-847 2868,-617 2630,-617"/>
<text text-anchor="middle" x="2749" y="-831.8" font-family="Times,serif" font-size="14.00" fill="#00ffff">tens_sprocket</text>
</a>
</g>
</g>
<g id="clust17" class="cluster">
<title>cluster_tens_support</title>
<g id="a_clust17"><a xlink:href="https://docs.google.com/document/d/1qYkBiUN_XgFudSghjHKeIuyT0OMZuRz7uI5yUJP2KwM/edit#bookmark=id.p5ghf2rcfxw" xlink:title="tens_support">
<polygon fill="none" stroke="#000000" stroke-dasharray="1,5" points="655,-224 655,-371 855,-371 855,-224 655,-224"/>
<text text-anchor="middle" x="755" y="-355.8" font-family="Times,serif" font-size="14.00" fill="#00ffff">tens_support</text>
</a>
</g>
</g>
<g id="clust19" class="cluster">
<title>cluster_tens_shaft</title>
<g id="a_clust19"><a xlink:href="https://docs.google.com/document/d/1qYkBiUN_XgFudSghjHKeIuyT0OMZuRz7uI5yUJP2KwM/edit#bookmark=id.aluukuv724uu" xlink:title="tens_shaft">
<polygon fill="none" stroke="#000000" stroke-dasharray="1,5" points="2370,-224 2370,-454 2552,-454 2552,-224 2370,-224"/>
<text text-anchor="middle" x="2461" y="-438.8" font-family="Times,serif" font-size="14.00" fill="#00ffff">tens_shaft</text>
</a>
</g>
</g>
<!-- unstarted -->
<g id="node1" class="node">
<title>unstarted</title>
<polygon fill="#ffffff" stroke="#ff0000" stroke-width="3" points="110,-930 24,-930 24,-894 110,-894 110,-930"/>
<text text-anchor="middle" x="67" y="-908.3" font-family="Times,serif" font-size="14.00" fill="#000000">unstarted</text>
</g>
<!-- in_progress -->
<g id="node2" class="node">
<title>in_progress</title>
<defs>
<linearGradient id="l_0" gradientUnits="userSpaceOnUse" x1="16.5" y1="-798" x2="117.5" y2="-798" >
<stop offset="0.499" style="stop-color:#c0c0c0;stop-opacity:1.;"/>
<stop offset="0.500" style="stop-color:#ffffff;stop-opacity:1.;"/>
</linearGradient>
</defs>
<polygon fill="url(#l_0)" stroke="#ff0000" stroke-width="3" points="117.5,-816 16.5,-816 16.5,-780 117.5,-780 117.5,-816"/>
<text text-anchor="middle" x="67" y="-794.3" font-family="Times,serif" font-size="14.00" fill="#000000">in_progress</text>
</g>
<!-- unstarted&#45;&gt;in_progress -->
<g id="edge1" class="edge">
<title>unstarted&#45;&gt;in_progress</title>
<path fill="none" stroke="#000000" d="M67,-893.9364C67,-875.7827 67,-847.536 67,-826.3859"/>
<polygon fill="#000000" stroke="#000000" points="70.5001,-826.3566 67,-816.3566 63.5001,-826.3567 70.5001,-826.3566"/>
</g>
<!-- complete -->
<g id="node3" class="node">
<title>complete</title>
<polygon fill="#c0c0c0" stroke="#ff0000" stroke-width="3" points="108.5,-744 25.5,-744 25.5,-708 108.5,-708 108.5,-744"/>
<text text-anchor="middle" x="67" y="-722.3" font-family="Times,serif" font-size="14.00" fill="#000000">complete</text>
</g>
<!-- in_progress&#45;&gt;complete -->
<g id="edge2" class="edge">
<title>in_progress&#45;&gt;complete</title>
<path fill="none" stroke="#000000" d="M67,-779.8314C67,-772.131 67,-762.9743 67,-754.4166"/>
<polygon fill="#000000" stroke="#000000" points="70.5001,-754.4132 67,-744.4133 63.5001,-754.4133 70.5001,-754.4132"/>
</g>
<!-- item -->
<g id="node4" class="node">
<title>item</title>
<ellipse fill="#ffffff" stroke="#000000" stroke-width="3" cx="213" cy="-912" rx="31.6951" ry="18"/>
<text text-anchor="middle" x="213" y="-908.3" font-family="Times,serif" font-size="14.00" fill="#000000">item</text>
</g>
<!-- hacksaw -->
<g id="node5" class="node">
<title>hacksaw</title>
<polygon fill="#ffffff" stroke="#a52a2a" stroke-width="3" points="252.5,-816 173.5,-816 173.5,-780 252.5,-780 252.5,-816"/>
<text text-anchor="middle" x="213" y="-794.3" font-family="Times,serif" font-size="14.00" fill="#000000">hacksaw</text>
</g>
<!-- item&#45;&gt;hacksaw -->
<!-- vertical_bandsaw -->
<g id="node6" class="node">
<title>vertical_bandsaw</title>
<polygon fill="#ffffff" stroke="#ff0000" stroke-width="3" points="284,-744 142,-744 142,-708 284,-708 284,-744"/>
<text text-anchor="middle" x="213" y="-722.3" font-family="Times,serif" font-size="14.00" fill="#000000">vertical_bandsaw</text>
</g>
<!-- hacksaw&#45;&gt;vertical_bandsaw -->
<!-- mill -->
<g id="node7" class="node">
<title>mill</title>
<polygon fill="#ffffff" stroke="#ffa500" stroke-width="3" points="240,-661 186,-661 186,-625 240,-625 240,-661"/>
<text text-anchor="middle" x="213" y="-639.3" font-family="Times,serif" font-size="14.00" fill="#000000">mill</text>
</g>
<!-- vertical_bandsaw&#45;&gt;mill -->
<!-- marking -->
<g id="node8" class="node">
<title>marking</title>
<polygon fill="#ffffff" stroke="#ffff00" stroke-width="3" points="251.5,-578 174.5,-578 174.5,-542 251.5,-542 251.5,-578"/>
<text text-anchor="middle" x="213" y="-556.3" font-family="Times,serif" font-size="14.00" fill="#000000">marking</text>
</g>
<!-- mill&#45;&gt;marking -->
<!-- hand_drill -->
<g id="node9" class="node">
<title>hand_drill</title>
<polygon fill="#ffffff" stroke="#006400" stroke-width="3" points="257.5,-506 168.5,-506 168.5,-470 257.5,-470 257.5,-506"/>
<text text-anchor="middle" x="213" y="-484.3" font-family="Times,serif" font-size="14.00" fill="#000000">hand_drill</text>
</g>
<!-- marking&#45;&gt;hand_drill -->
<!-- drill_press -->
<g id="node10" class="node">
<title>drill_press</title>
<polygon fill="#ffffff" stroke="#00ff00" stroke-width="3" points="259,-423 167,-423 167,-387 259,-387 259,-423"/>
<text text-anchor="middle" x="213" y="-401.3" font-family="Times,serif" font-size="14.00" fill="#000000">drill_press</text>
</g>
<!-- hand_drill&#45;&gt;drill_press -->
<!-- lathe -->
<g id="node11" class="node">
<title>lathe</title>
<polygon fill="#ffffff" stroke="#00ffff" stroke-width="3" points="240,-340 186,-340 186,-304 240,-304 240,-340"/>
<text text-anchor="middle" x="213" y="-318.3" font-family="Times,serif" font-size="14.00" fill="#000000">lathe</text>
</g>
<!-- drill_press&#45;&gt;lathe -->
<!-- tapping -->
<g id="node12" class="node">
<title>tapping</title>
<polygon fill="#ffffff" stroke="#0000ff" stroke-width="3" points="248.5,-268 177.5,-268 177.5,-232 248.5,-232 248.5,-268"/>
<text text-anchor="middle" x="213" y="-246.3" font-family="Times,serif" font-size="14.00" fill="#000000">tapping</text>
</g>
<!-- lathe&#45;&gt;tapping -->
<!-- miscellaneous -->
<g id="node13" class="node">
<title>miscellaneous</title>
<polygon fill="#ffffff" stroke="#ff00ff" stroke-width="3" points="272,-196 154,-196 154,-160 272,-160 272,-196"/>
<text text-anchor="middle" x="213" y="-174.3" font-family="Times,serif" font-size="14.00" fill="#000000">miscellaneous</text>
</g>
<!-- tapping&#45;&gt;miscellaneous -->
<!-- electrical -->
<g id="node14" class="node">
<title>electrical</title>
<polygon fill="#ffffff" stroke="#8b008b" stroke-width="3" points="255,-124 171,-124 171,-88 255,-88 255,-124"/>
<text text-anchor="middle" x="213" y="-102.3" font-family="Times,serif" font-size="14.00" fill="#000000">electrical</text>
</g>
<!-- miscellaneous&#45;&gt;electrical -->
<!-- assembly -->
<g id="node15" class="node">
<title>assembly</title>
<polygon fill="#ffffff" stroke="#696969" stroke-width="3" points="254.5,-52 171.5,-52 171.5,-16 254.5,-16 254.5,-52"/>
<text text-anchor="middle" x="213" y="-30.3" font-family="Times,serif" font-size="14.00" fill="#000000">assembly</text>
</g>
<!-- electrical&#45;&gt;assembly -->
<!-- tens_materials -->
<g id="node16" class="node">
<title>tens_materials</title>
<ellipse fill="#ffffff" stroke="#000000" stroke-width="3" cx="2245" cy="-912" rx="79.0865" ry="18"/>
<text text-anchor="middle" x="2245" y="-908.3" font-family="Times,serif" font-size="14.00" fill="#000000">tens_materials</text>
</g>
<!-- tens_outerchannel_material -->
<g id="node17" class="node">
<title>tens_outerchannel_material</title>
<ellipse fill="#ffffff" stroke="#000000" stroke-width="3" cx="495" cy="-798" rx="141.075" ry="18"/>
<text text-anchor="middle" x="495" y="-794.3" font-family="Times,serif" font-size="14.00" fill="#000000">tens_outerchannel_material</text>
</g>
<!-- tens_materials&#45;&gt;tens_outerchannel_material -->
<g id="edge14" class="edge">
<title>tens_materials&#45;&gt;tens_outerchannel_material</title>
<path fill="none" stroke="#000000" d="M2165.7779,-910.7915C1939.2645,-907.1604 1291.6108,-895.5067 1080,-878 906.2119,-863.6224 705.0692,-833.0267 589.6682,-814.1161"/>
<polygon fill="#000000" stroke="#000000" points="589.8923,-810.606 579.4568,-812.4365 588.7562,-817.5132 589.8923,-810.606"/>
</g>
<!-- tens_boltblock_material -->
<g id="node22" class="node">
<title>tens_boltblock_material</title>
<ellipse fill="#ffffff" stroke="#000000" stroke-width="3" cx="2125" cy="-798" rx="122.6784" ry="18"/>
<text text-anchor="middle" x="2125" y="-794.3" font-family="Times,serif" font-size="14.00" fill="#000000">tens_boltblock_material</text>
</g>
<!-- tens_materials&#45;&gt;tens_boltblock_material -->
<g id="edge19" class="edge">
<title>tens_materials&#45;&gt;tens_boltblock_material</title>
<path fill="none" stroke="#000000" d="M2226.513,-894.4373C2206.4302,-875.3587 2174.177,-844.7182 2151.4242,-823.1029"/>
<polygon fill="#000000" stroke="#000000" points="2153.7641,-820.4983 2144.1035,-816.1483 2148.9429,-825.5733 2153.7641,-820.4983"/>
</g>
<!-- tens_bottomblock_material -->
<g id="node32" class="node">
<title>tens_bottomblock_material</title>
<ellipse fill="#ffffff" stroke="#000000" stroke-width="3" cx="1230" cy="-798" rx="137.5759" ry="18"/>
<text text-anchor="middle" x="1230" y="-794.3" font-family="Times,serif" font-size="14.00" fill="#000000">tens_bottomblock_material</text>
</g>
<!-- tens_materials&#45;&gt;tens_bottomblock_material -->
<g id="edge32" class="edge">
<title>tens_materials&#45;&gt;tens_bottomblock_material</title>
<path fill="none" stroke="#000000" d="M2173.6272,-903.9837C2000.3677,-884.5241 1556.2869,-834.647 1345.0154,-810.918"/>
<polygon fill="#000000" stroke="#000000" points="1345.1531,-807.4115 1334.8249,-809.7734 1344.3717,-814.3678 1345.1531,-807.4115"/>
</g>
<!-- tens_spacer_material -->
<g id="node41" class="node">
<title>tens_spacer_material</title>
<ellipse fill="#ffffff" stroke="#000000" stroke-width="3" cx="2504" cy="-798" rx="110.4804" ry="18"/>
<text text-anchor="middle" x="2504" y="-794.3" font-family="Times,serif" font-size="14.00" fill="#000000">tens_spacer_material</text>
</g>
<!-- tens_materials&#45;&gt;tens_spacer_material -->
<g id="edge43" class="edge">
<title>tens_materials&#45;&gt;tens_spacer_material</title>
<path fill="none" stroke="#000000" d="M2307.2177,-900.7903C2330.5983,-895.4331 2357.0564,-887.9677 2380,-878 2414.0513,-863.2066 2449.2857,-839.5265 2473.4526,-821.7611"/>
<polygon fill="#000000" stroke="#000000" points="2475.5933,-824.5309 2481.5191,-815.7482 2471.4097,-818.9186 2475.5933,-824.5309"/>
</g>
<!-- tens_sprocket_base -->
<g id="node44" class="node">
<title>tens_sprocket_base</title>
<ellipse fill="#ffffff" stroke="#000000" stroke-width="3" cx="2745" cy="-798" rx="102.8821" ry="18"/>
<text text-anchor="middle" x="2745" y="-794.3" font-family="Times,serif" font-size="14.00" fill="#000000">tens_sprocket_base</text>
</g>
<!-- tens_materials&#45;&gt;tens_sprocket_base -->
<g id="edge46" class="edge">
<title>tens_materials&#45;&gt;tens_sprocket_base</title>
<path fill="none" stroke="#000000" d="M2323.7542,-909.5798C2418.6821,-905.8625 2572.1662,-897.0695 2626,-878 2660.4834,-865.785 2694.5899,-841.2323 2717.3894,-822.5316"/>
<polygon fill="#000000" stroke="#000000" points="2719.8394,-825.045 2725.2573,-815.9403 2715.3441,-819.6791 2719.8394,-825.045"/>
</g>
<!-- tens_support_assembly -->
<g id="node47" class="node">
<title>tens_support_assembly</title>
<polygon fill="#ffffff" stroke="#696969" stroke-width="3" points="847.5,-340 662.5,-340 662.5,-304 847.5,-304 847.5,-340"/>
<text text-anchor="middle" x="755" y="-318.3" font-family="Times,serif" font-size="14.00" fill="#000000">tens_support_assembly</text>
</g>
<!-- tens_materials&#45;&gt;tens_support_assembly -->
<g id="edge49" class="edge">
<title>tens_materials&#45;&gt;tens_support_assembly</title>
<path fill="none" stroke="#000000" d="M2165.5511,-911.2963C1805.686,-908.0225 345.2115,-893.7734 328,-878 277.9205,-832.1049 312,-793.9288 312,-726 312,-726 312,-726 312,-488 312,-415.7079 521.4791,-364.3438 652.34,-339.3098"/>
<polygon fill="#000000" stroke="#000000" points="653.2269,-342.7041 662.4024,-337.4069 651.9262,-335.826 653.2269,-342.7041"/>
</g>
<!-- tens_shaft_testing -->
<g id="node49" class="node">
<title>tens_shaft_testing</title>
<polygon fill="#ffffff" stroke="#ff00ff" stroke-width="3" points="2539.5,-423 2390.5,-423 2390.5,-387 2539.5,-387 2539.5,-423"/>
<text text-anchor="middle" x="2465" y="-401.3" font-family="Times,serif" font-size="14.00" fill="#000000">tens_shaft_testing</text>
</g>
<!-- tens_materials&#45;&gt;tens_shaft_testing -->
<g id="edge53" class="edge">
<title>tens_materials&#45;&gt;tens_shaft_testing</title>
<path fill="none" stroke="#000000" d="M2254.3608,-893.9701C2273.5854,-856.6867 2318.5212,-768.217 2352,-692 2357.5293,-679.4122 2426.9291,-502.2687 2454.1486,-432.7313"/>
<polygon fill="#000000" stroke="#000000" points="2457.4603,-433.8727 2457.8459,-423.2849 2450.9418,-431.3214 2457.4603,-433.8727"/>
</g>
<!-- tens_mounting -->
<g id="node52" class="node">
<title>tens_mounting</title>
<g id="a_node52"><a xlink:href="https://docs.google.com/document/d/1qYkBiUN_XgFudSghjHKeIuyT0OMZuRz7uI5yUJP2KwM/edit#bookmark=id.oohd6446uct6" xlink:title="tens_mounting">
<polygon fill="#ffffff" stroke="#696969" stroke-width="3" points="2522.5,-196 2399.5,-196 2399.5,-160 2522.5,-160 2522.5,-196"/>
<text text-anchor="middle" x="2461" y="-174.3" font-family="Times,serif" font-size="14.00" fill="#00ffff">tens_mounting</text>
</a>
</g>
</g>
<!-- tens_materials&#45;&gt;tens_mounting -->
<g id="edge59" class="edge">
<title>tens_materials&#45;&gt;tens_mounting</title>
<path fill="none" stroke="#000000" d="M2324.2596,-910.4008C2488.4964,-906.7202 2852.3961,-896.5133 2872,-878 2921.4218,-831.3275 2889,-793.9768 2889,-726 2889,-726 2889,-726 2889,-322 2889,-247.747 2654.6648,-204.5379 2532.7827,-187.0858"/>
<polygon fill="#000000" stroke="#000000" points="2533.1686,-183.6057 2522.7778,-185.6749 2532.191,-190.5371 2533.1686,-183.6057"/>
</g>
<!-- tens_outerchannel_cutting -->
<g id="node18" class="node">
<title>tens_outerchannel_cutting</title>
<polygon fill="#ffffff" stroke="#ff0000" stroke-width="3" points="595.5,-744 386.5,-744 386.5,-708 595.5,-708 595.5,-744"/>
<text text-anchor="middle" x="491" y="-722.3" font-family="Times,serif" font-size="14.00" fill="#000000">tens_outerchannel_cutting</text>
</g>
<!-- tens_outerchannel_material&#45;&gt;tens_outerchannel_cutting -->
<g id="edge15" class="edge">
<title>tens_outerchannel_material&#45;&gt;tens_outerchannel_cutting</title>
<path fill="none" stroke="#000000" d="M493.9906,-779.8314C493.5628,-772.131 493.0541,-762.9743 492.5787,-754.4166"/>
<polygon fill="#000000" stroke="#000000" points="496.0724,-754.2037 492.023,-744.4133 489.0831,-754.592 496.0724,-754.2037"/>
</g>
<!-- tens_outerchannel_screwhole_marking -->
<g id="node19" class="node">
<title>tens_outerchannel_screwhole_marking</title>
<polygon fill="#ffffff" stroke="#ffff00" stroke-width="3" points="637.5,-661 340.5,-661 340.5,-625 637.5,-625 637.5,-661"/>
<text text-anchor="middle" x="489" y="-639.3" font-family="Times,serif" font-size="14.00" fill="#000000">tens_outerchannel_screwhole_marking</text>
</g>
<!-- tens_outerchannel_cutting&#45;&gt;tens_outerchannel_screwhole_marking -->
<g id="edge16" class="edge">
<title>tens_outerchannel_cutting&#45;&gt;tens_outerchannel_screwhole_marking</title>
<path fill="none" stroke="#000000" d="M490.566,-707.9902C490.3083,-697.2963 489.9759,-683.4994 489.6836,-671.3706"/>
<polygon fill="#000000" stroke="#000000" points="493.18,-671.174 489.44,-661.2612 486.182,-671.3427 493.18,-671.174"/>
</g>
<!-- tens_outerchannel_screwhole_drilling -->
<g id="node20" class="node">
<title>tens_outerchannel_screwhole_drilling</title>
<polygon fill="#ffffff" stroke="#00ff00" stroke-width="3" points="635.5,-578 346.5,-578 346.5,-542 635.5,-542 635.5,-578"/>
<text text-anchor="middle" x="491" y="-556.3" font-family="Times,serif" font-size="14.00" fill="#000000">tens_outerchannel_screwhole_drilling</text>
</g>
<!-- tens_outerchannel_screwhole_marking&#45;&gt;tens_outerchannel_screwhole_drilling -->
<g id="edge17" class="edge">
<title>tens_outerchannel_screwhole_marking&#45;&gt;tens_outerchannel_screwhole_drilling</title>
<path fill="none" stroke="#000000" d="M489.434,-624.9902C489.6917,-614.2963 490.0241,-600.4994 490.3164,-588.3706"/>
<polygon fill="#000000" stroke="#000000" points="493.818,-588.3427 490.56,-578.2612 486.82,-588.174 493.818,-588.3427"/>
</g>
<!-- tens_outerchannel -->
<g id="node21" class="node">
<title>tens_outerchannel</title>
<ellipse fill="#ffffff" stroke="#000000" stroke-width="3" cx="517" cy="-488" rx="96.6831" ry="18"/>
<text text-anchor="middle" x="517" y="-484.3" font-family="Times,serif" font-size="14.00" fill="#000000">tens_outerchannel</text>
</g>
<!-- tens_outerchannel_screwhole_drilling&#45;&gt;tens_outerchannel -->
<g id="edge18" class="edge">
<title>tens_outerchannel_screwhole_drilling&#45;&gt;tens_outerchannel</title>
<path fill="none" stroke="#000000" d="M497.5609,-541.8314C500.4027,-533.9617 503.7937,-524.5712 506.9419,-515.8533"/>
<polygon fill="#000000" stroke="#000000" points="510.2462,-517.0076 510.3508,-506.4133 503.6623,-514.63 510.2462,-517.0076"/>
</g>
<!-- tens_outerchannel&#45;&gt;tens_support_assembly -->
<g id="edge50" class="edge">
<title>tens_outerchannel&#45;&gt;tens_support_assembly</title>
<path fill="none" stroke="#000000" d="M536.3604,-470.1441C561.4695,-447.4649 607.14,-407.8181 650,-379 668.4904,-366.5675 689.9512,-354.5323 708.6339,-344.7501"/>
<polygon fill="#000000" stroke="#000000" points="710.2812,-347.8386 717.557,-340.137 707.0665,-341.6204 710.2812,-347.8386"/>
</g>
<!-- tens_boltblock_cutting -->
<g id="node23" class="node">
<title>tens_boltblock_cutting</title>
<polygon fill="#ffffff" stroke="#ff0000" stroke-width="3" points="2199.5,-744 2018.5,-744 2018.5,-708 2199.5,-708 2199.5,-744"/>
<text text-anchor="middle" x="2109" y="-722.3" font-family="Times,serif" font-size="14.00" fill="#000000">tens_boltblock_cutting</text>
</g>
<!-- tens_boltblock_material&#45;&gt;tens_boltblock_cutting -->
<g id="edge20" class="edge">
<title>tens_boltblock_material&#45;&gt;tens_boltblock_cutting</title>
<path fill="none" stroke="#000000" d="M2120.9625,-779.8314C2119.2513,-772.131 2117.2165,-762.9743 2115.3148,-754.4166"/>
<polygon fill="#000000" stroke="#000000" points="2118.6779,-753.4159 2113.0918,-744.4133 2111.8446,-754.9344 2118.6779,-753.4159"/>
</g>
<!-- tens_boltblock_bolthole_marking -->
<g id="node24" class="node">
<title>tens_boltblock_bolthole_marking</title>
<polygon fill="#ffffff" stroke="#ffff00" stroke-width="3" points="1776,-661 1522,-661 1522,-625 1776,-625 1776,-661"/>
<text text-anchor="middle" x="1649" y="-639.3" font-family="Times,serif" font-size="14.00" fill="#000000">tens_boltblock_bolthole_marking</text>
</g>
<!-- tens_boltblock_cutting&#45;&gt;tens_boltblock_bolthole_marking -->
<g id="edge21" class="edge">
<title>tens_boltblock_cutting&#45;&gt;tens_boltblock_bolthole_marking</title>
<path fill="none" stroke="#000000" d="M2018.3934,-709.6514C1943.9702,-696.2229 1838.2831,-677.1533 1759.0099,-662.8496"/>
<polygon fill="#000000" stroke="#000000" points="1759.4505,-659.3727 1748.9879,-661.0413 1758.2074,-666.2614 1759.4505,-659.3727"/>
</g>
<!-- tens_boltblock_screwholes_marking -->
<g id="node27" class="node">
<title>tens_boltblock_screwholes_marking</title>
<polygon fill="#ffffff" stroke="#ffff00" stroke-width="3" points="2077.5,-578 1800.5,-578 1800.5,-542 2077.5,-542 2077.5,-578"/>
<text text-anchor="middle" x="1939" y="-556.3" font-family="Times,serif" font-size="14.00" fill="#000000">tens_boltblock_screwholes_marking</text>
</g>
<!-- tens_boltblock_cutting&#45;&gt;tens_boltblock_screwholes_marking -->
<g id="edge24" class="edge">
<title>tens_boltblock_cutting&#45;&gt;tens_boltblock_screwholes_marking</title>
<path fill="none" stroke="#000000" d="M2045.0661,-707.994C2035.7442,-703.6779 2026.7064,-698.4067 2019,-692 1985.1208,-663.8344 1961.7609,-617.4004 1949.3827,-587.781"/>
<polygon fill="#000000" stroke="#000000" points="1952.5969,-586.393 1945.6066,-578.4315 1946.1063,-589.0145 1952.5969,-586.393"/>
</g>
<!-- tens_boltblock_millingrecess -->
<g id="node29" class="node">
<title>tens_boltblock_millingrecess</title>
<g id="a_node29"><a xlink:href="https://docs.google.com/document/d/1qYkBiUN_XgFudSghjHKeIuyT0OMZuRz7uI5yUJP2KwM/edit#bookmark=id.2kw8bn8i0mgb" xlink:title="tens_boltblock_millingrecess">
<polygon fill="#ffffff" stroke="#ffa500" stroke-width="3" points="2319.5,-506 2094.5,-506 2094.5,-470 2319.5,-470 2319.5,-506"/>
<text text-anchor="middle" x="2207" y="-484.3" font-family="Times,serif" font-size="14.00" fill="#00ffff">tens_boltblock_millingrecess</text>
</a>
</g>
</g>
<!-- tens_boltblock_cutting&#45;&gt;tens_boltblock_millingrecess -->
<g id="edge26" class="edge">
<title>tens_boltblock_cutting&#45;&gt;tens_boltblock_millingrecess</title>
<path fill="none" stroke="#000000" d="M2107.9277,-707.6541C2107.2481,-685.4923 2108.0722,-647.4009 2119,-617 2133.1714,-577.5753 2162.2993,-538.7423 2183.1634,-514.1521"/>
<polygon fill="#000000" stroke="#000000" points="2185.9928,-516.2311 2189.8887,-506.3785 2180.699,-511.6512 2185.9928,-516.2311"/>
</g>
<!-- tens_boltblock_millingends -->
<g id="node30" class="node">
<title>tens_boltblock_millingends</title>
<g id="a_node30"><a xlink:href="https://docs.google.com/document/d/1qYkBiUN_XgFudSghjHKeIuyT0OMZuRz7uI5yUJP2KwM/edit#bookmark=id.kh392kmlf46h" xlink:title="tens_boltblock_millingends">
<polygon fill="#ffffff" stroke="#ffa500" stroke-width="3" points="2340,-661 2128,-661 2128,-625 2340,-625 2340,-661"/>
<text text-anchor="middle" x="2234" y="-639.3" font-family="Times,serif" font-size="14.00" fill="#00ffff">tens_boltblock_millingends</text>
</a>
</g>
</g>
<!-- tens_boltblock_cutting&#45;&gt;tens_boltblock_millingends -->
<g id="edge27" class="edge">
<title>tens_boltblock_cutting&#45;&gt;tens_boltblock_millingends</title>
<path fill="none" stroke="#000000" d="M2136.1231,-707.9902C2154.262,-695.946 2178.3285,-679.9659 2198.0577,-666.8657"/>
<polygon fill="#000000" stroke="#000000" points="2200.1035,-669.7087 2206.4981,-661.2612 2196.2313,-663.8771 2200.1035,-669.7087"/>
</g>
<!-- tens_boltblock_bolthole_drilling -->
<g id="node25" class="node">
<title>tens_boltblock_bolthole_drilling</title>
<polygon fill="#ffffff" stroke="#00ff00" stroke-width="3" points="1772,-578 1526,-578 1526,-542 1772,-542 1772,-578"/>
<text text-anchor="middle" x="1649" y="-556.3" font-family="Times,serif" font-size="14.00" fill="#000000">tens_boltblock_bolthole_drilling</text>
</g>
<!-- tens_boltblock_bolthole_marking&#45;&gt;tens_boltblock_bolthole_drilling -->
<g id="edge22" class="edge">
<title>tens_boltblock_bolthole_marking&#45;&gt;tens_boltblock_bolthole_drilling</title>
<path fill="none" stroke="#000000" d="M1649,-624.9902C1649,-614.2963 1649,-600.4994 1649,-588.3706"/>
<polygon fill="#000000" stroke="#000000" points="1652.5001,-588.2612 1649,-578.2612 1645.5001,-588.2613 1652.5001,-588.2612"/>
</g>
<!-- tens_boltblock_bolthole_tapping -->
<g id="node26" class="node">
<title>tens_boltblock_bolthole_tapping</title>
<polygon fill="#ffffff" stroke="#0000ff" stroke-width="3" points="1774.5,-506 1525.5,-506 1525.5,-470 1774.5,-470 1774.5,-506"/>
<text text-anchor="middle" x="1650" y="-484.3" font-family="Times,serif" font-size="14.00" fill="#000000">tens_boltblock_bolthole_tapping</text>
</g>
<!-- tens_boltblock_bolthole_drilling&#45;&gt;tens_boltblock_bolthole_tapping -->
<g id="edge23" class="edge">
<title>tens_boltblock_bolthole_drilling&#45;&gt;tens_boltblock_bolthole_tapping</title>
<path fill="none" stroke="#000000" d="M1649.2523,-541.8314C1649.3593,-534.131 1649.4865,-524.9743 1649.6053,-516.4166"/>
<polygon fill="#000000" stroke="#000000" points="1653.1049,-516.4609 1649.7443,-506.4133 1646.1056,-516.3637 1653.1049,-516.4609"/>
</g>
<!-- tens_boltblock -->
<g id="node31" class="node">
<title>tens_boltblock</title>
<ellipse fill="#ffffff" stroke="#000000" stroke-width="3" cx="2207" cy="-405" rx="79.0865" ry="18"/>
<text text-anchor="middle" x="2207" y="-401.3" font-family="Times,serif" font-size="14.00" fill="#000000">tens_boltblock</text>
</g>
<!-- tens_boltblock_bolthole_tapping&#45;&gt;tens_boltblock -->
<g id="edge28" class="edge">
<title>tens_boltblock_bolthole_tapping&#45;&gt;tens_boltblock</title>
<path fill="none" stroke="#000000" d="M1742.3033,-469.9356C1757.546,-467.1464 1773.1996,-464.3993 1788,-462 1905.5112,-442.9498 2042.2692,-425.1632 2126.7414,-414.683"/>
<polygon fill="#000000" stroke="#000000" points="2127.2842,-418.1426 2136.7789,-413.4416 2126.4249,-411.1956 2127.2842,-418.1426"/>
</g>
<!-- tens_boltblock_screwholes_drilling -->
<g id="node28" class="node">
<title>tens_boltblock_screwholes_drilling</title>
<polygon fill="#ffffff" stroke="#00ff00" stroke-width="3" points="2074.5,-506 1805.5,-506 1805.5,-470 2074.5,-470 2074.5,-506"/>
<text text-anchor="middle" x="1940" y="-484.3" font-family="Times,serif" font-size="14.00" fill="#000000">tens_boltblock_screwholes_drilling</text>
</g>
<!-- tens_boltblock_screwholes_marking&#45;&gt;tens_boltblock_screwholes_drilling -->
<g id="edge25" class="edge">
<title>tens_boltblock_screwholes_marking&#45;&gt;tens_boltblock_screwholes_drilling</title>
<path fill="none" stroke="#000000" d="M1939.2523,-541.8314C1939.3593,-534.131 1939.4865,-524.9743 1939.6053,-516.4166"/>
<polygon fill="#000000" stroke="#000000" points="1943.1049,-516.4609 1939.7443,-506.4133 1936.1056,-516.3637 1943.1049,-516.4609"/>
</g>
<!-- tens_boltblock_screwholes_drilling&#45;&gt;tens_boltblock -->
<g id="edge29" class="edge">
<title>tens_boltblock_screwholes_drilling&#45;&gt;tens_boltblock</title>
<path fill="none" stroke="#000000" d="M1997.935,-469.9902C2043.0877,-455.954 2105.4365,-436.5722 2150.2775,-422.6329"/>
<polygon fill="#000000" stroke="#000000" points="2151.3414,-425.9674 2159.8516,-419.6566 2149.2634,-419.2829 2151.3414,-425.9674"/>
</g>
<!-- tens_boltblock_millingrecess&#45;&gt;tens_boltblock -->
<g id="edge30" class="edge">
<title>tens_boltblock_millingrecess&#45;&gt;tens_boltblock</title>
<path fill="none" stroke="#000000" d="M2207,-469.9902C2207,-459.2963 2207,-445.4994 2207,-433.3706"/>
<polygon fill="#000000" stroke="#000000" points="2210.5001,-433.2612 2207,-423.2612 2203.5001,-433.2613 2210.5001,-433.2612"/>
</g>
<!-- tens_boltblock_millingends&#45;&gt;tens_boltblock -->
<g id="edge31" class="edge">
<title>tens_boltblock_millingends&#45;&gt;tens_boltblock</title>
<path fill="none" stroke="#000000" d="M2256.3031,-624.9785C2294.6016,-591.7924 2365.399,-519.1819 2329,-462 2316.5335,-442.4154 2295.381,-429.4479 2274.1571,-420.9108"/>
<polygon fill="#000000" stroke="#000000" points="2275.3507,-417.6205 2264.758,-417.4048 2272.9042,-424.1791 2275.3507,-417.6205"/>
</g>
<!-- tens_shaft_assembly -->
<g id="node50" class="node">
<title>tens_shaft_assembly</title>
<polygon fill="#ffffff" stroke="#696969" stroke-width="3" points="2543.5,-340 2378.5,-340 2378.5,-304 2543.5,-304 2543.5,-340"/>
<text text-anchor="middle" x="2461" y="-318.3" font-family="Times,serif" font-size="14.00" fill="#000000">tens_shaft_assembly</text>
</g>
<!-- tens_boltblock&#45;&gt;tens_shaft_assembly -->
<g id="edge56" class="edge">
<title>tens_boltblock&#45;&gt;tens_shaft_assembly</title>
<path fill="none" stroke="#000000" d="M2252.4101,-390.1613C2292.4249,-377.0855 2351.1798,-357.8861 2396.1431,-343.1934"/>
<polygon fill="#000000" stroke="#000000" points="2397.3868,-346.4692 2405.8051,-340.0361 2395.2125,-339.8154 2397.3868,-346.4692"/>
</g>
<!-- tens_bottomblock_cutting -->
<g id="node33" class="node">
<title>tens_bottomblock_cutting</title>
<polygon fill="#ffffff" stroke="#ff0000" stroke-width="3" points="1332,-744 1128,-744 1128,-708 1332,-708 1332,-744"/>
<text text-anchor="middle" x="1230" y="-722.3" font-family="Times,serif" font-size="14.00" fill="#000000">tens_bottomblock_cutting</text>
</g>
<!-- tens_bottomblock_material&#45;&gt;tens_bottomblock_cutting -->
<g id="edge33" class="edge">
<title>tens_bottomblock_material&#45;&gt;tens_bottomblock_cutting</title>
<path fill="none" stroke="#000000" d="M1230,-779.8314C1230,-772.131 1230,-762.9743 1230,-754.4166"/>
<polygon fill="#000000" stroke="#000000" points="1233.5001,-754.4132 1230,-744.4133 1226.5001,-754.4133 1233.5001,-754.4132"/>
</g>
<!-- tens_bottomblock_marking -->
<g id="node34" class="node">
<title>tens_bottomblock_marking</title>
<polygon fill="#ffffff" stroke="#ffff00" stroke-width="3" points="1304,-661 1092,-661 1092,-625 1304,-625 1304,-661"/>
<text text-anchor="middle" x="1198" y="-639.3" font-family="Times,serif" font-size="14.00" fill="#000000">tens_bottomblock_marking</text>
</g>
<!-- tens_bottomblock_cutting&#45;&gt;tens_bottomblock_marking -->
<g id="edge34" class="edge">
<title>tens_bottomblock_cutting&#45;&gt;tens_bottomblock_marking</title>
<path fill="none" stroke="#000000" d="M1223.0565,-707.9902C1218.8502,-697.0802 1213.3988,-682.9407 1208.6555,-670.6376"/>
<polygon fill="#000000" stroke="#000000" points="1211.9036,-669.3327 1205.0405,-661.2612 1205.3722,-671.8509 1211.9036,-669.3327"/>
</g>
<!-- tens_bottomblock_milling -->
<g id="node39" class="node">
<title>tens_bottomblock_milling</title>
<g id="a_node39"><a xlink:href="https://docs.google.com/document/d/1qYkBiUN_XgFudSghjHKeIuyT0OMZuRz7uI5yUJP2KwM/edit#bookmark=id.95zv67v72i56" xlink:title="tens_bottomblock_milling">
<polygon fill="#ffffff" stroke="#ffa500" stroke-width="3" points="1490,-506 1288,-506 1288,-470 1490,-470 1490,-506"/>
<text text-anchor="middle" x="1389" y="-484.3" font-family="Times,serif" font-size="14.00" fill="#00ffff">tens_bottomblock_milling</text>
</a>
</g>
</g>
<!-- tens_bottomblock_cutting&#45;&gt;tens_bottomblock_milling -->
<g id="edge39" class="edge">
<title>tens_bottomblock_cutting&#45;&gt;tens_bottomblock_milling</title>
<path fill="none" stroke="#000000" d="M1291.2949,-707.8652C1299.2858,-703.5989 1306.8255,-698.3764 1313,-692 1361.1115,-642.3154 1379.2743,-559.4258 1385.7209,-516.1887"/>
<polygon fill="#000000" stroke="#000000" points="1389.2139,-516.4804 1387.1186,-506.0949 1382.28,-515.5203 1389.2139,-516.4804"/>
</g>
<!-- tens_bottomblock_mountholes_drilling -->
<g id="node35" class="node">
<title>tens_bottomblock_mountholes_drilling</title>
<polygon fill="#ffffff" stroke="#00ff00" stroke-width="3" points="967.5,-578 672.5,-578 672.5,-542 967.5,-542 967.5,-578"/>
<text text-anchor="middle" x="820" y="-556.3" font-family="Times,serif" font-size="14.00" fill="#000000">tens_bottomblock_mountholes_drilling</text>
</g>
<!-- tens_bottomblock_marking&#45;&gt;tens_bottomblock_mountholes_drilling -->
<g id="edge35" class="edge">
<title>tens_bottomblock_marking&#45;&gt;tens_bottomblock_mountholes_drilling</title>
<path fill="none" stroke="#000000" d="M1091.8058,-629.5367C1056.0728,-624.1858 1016.1179,-617.3026 980,-609 947.1859,-601.4569 911.2895,-590.7006 881.8273,-581.1865"/>
<polygon fill="#000000" stroke="#000000" points="882.6886,-577.786 872.0962,-578.014 880.5189,-584.4413 882.6886,-577.786"/>
</g>
<!-- tens_bottomblock_endholes_drilling -->
<g id="node37" class="node">
<title>tens_bottomblock_endholes_drilling</title>
<polygon fill="#ffffff" stroke="#00ff00" stroke-width="3" points="1269.5,-578 994.5,-578 994.5,-542 1269.5,-542 1269.5,-578"/>
<text text-anchor="middle" x="1132" y="-556.3" font-family="Times,serif" font-size="14.00" fill="#000000">tens_bottomblock_endholes_drilling</text>
</g>
<!-- tens_bottomblock_marking&#45;&gt;tens_bottomblock_endholes_drilling -->
<g id="edge37" class="edge">
<title>tens_bottomblock_marking&#45;&gt;tens_bottomblock_endholes_drilling</title>
<path fill="none" stroke="#000000" d="M1183.679,-624.9902C1174.66,-613.6482 1162.8655,-598.8157 1152.8216,-586.1848"/>
<polygon fill="#000000" stroke="#000000" points="1155.4844,-583.9099 1146.521,-578.2612 1150.0055,-588.2667 1155.4844,-583.9099"/>
</g>
<!-- tens_bottomblock_mountholes_tapping -->
<g id="node36" class="node">
<title>tens_bottomblock_mountholes_tapping</title>
<polygon fill="#ffffff" stroke="#0000ff" stroke-width="3" points="968,-506 670,-506 670,-470 968,-470 968,-506"/>
<text text-anchor="middle" x="819" y="-484.3" font-family="Times,serif" font-size="14.00" fill="#000000">tens_bottomblock_mountholes_tapping</text>
</g>
<!-- tens_bottomblock_mountholes_drilling&#45;&gt;tens_bottomblock_mountholes_tapping -->
<g id="edge36" class="edge">
<title>tens_bottomblock_mountholes_drilling&#45;&gt;tens_bottomblock_mountholes_tapping</title>
<path fill="none" stroke="#000000" d="M819.7477,-541.8314C819.6407,-534.131 819.5135,-524.9743 819.3947,-516.4166"/>
<polygon fill="#000000" stroke="#000000" points="822.8944,-516.3637 819.2557,-506.4133 815.8951,-516.4609 822.8944,-516.3637"/>
</g>
<!-- tens_bottomblock -->
<g id="node40" class="node">
<title>tens_bottomblock</title>
<ellipse fill="#ffffff" stroke="#000000" stroke-width="3" cx="975" cy="-405" rx="94.4839" ry="18"/>
<text text-anchor="middle" x="975" y="-401.3" font-family="Times,serif" font-size="14.00" fill="#000000">tens_bottomblock</text>
</g>
<!-- tens_bottomblock_mountholes_tapping&#45;&gt;tens_bottomblock -->
<g id="edge40" class="edge">
<title>tens_bottomblock_mountholes_tapping&#45;&gt;tens_bottomblock</title>
<path fill="none" stroke="#000000" d="M852.8497,-469.9902C876.7128,-457.2938 908.7966,-440.2236 934.0943,-426.7639"/>
<polygon fill="#000000" stroke="#000000" points="935.8954,-429.7703 943.0797,-421.9832 932.6074,-423.5905 935.8954,-429.7703"/>
</g>
<!-- tens_bottomblock_endholes_tapping -->
<g id="node38" class="node">
<title>tens_bottomblock_endholes_tapping</title>
<polygon fill="#ffffff" stroke="#0000ff" stroke-width="3" points="1270,-506 992,-506 992,-470 1270,-470 1270,-506"/>
<text text-anchor="middle" x="1131" y="-484.3" font-family="Times,serif" font-size="14.00" fill="#000000">tens_bottomblock_endholes_tapping</text>
</g>
<!-- tens_bottomblock_endholes_drilling&#45;&gt;tens_bottomblock_endholes_tapping -->
<g id="edge38" class="edge">
<title>tens_bottomblock_endholes_drilling&#45;&gt;tens_bottomblock_endholes_tapping</title>
<path fill="none" stroke="#000000" d="M1131.7477,-541.8314C1131.6407,-534.131 1131.5135,-524.9743 1131.3947,-516.4166"/>
<polygon fill="#000000" stroke="#000000" points="1134.8944,-516.3637 1131.2557,-506.4133 1127.8951,-516.4609 1134.8944,-516.3637"/>
</g>
<!-- tens_bottomblock_endholes_tapping&#45;&gt;tens_bottomblock -->
<g id="edge41" class="edge">
<title>tens_bottomblock_endholes_tapping&#45;&gt;tens_bottomblock</title>
<path fill="none" stroke="#000000" d="M1097.1503,-469.9902C1073.2872,-457.2938 1041.2034,-440.2236 1015.9057,-426.7639"/>
<polygon fill="#000000" stroke="#000000" points="1017.3926,-423.5905 1006.9203,-421.9832 1014.1046,-429.7703 1017.3926,-423.5905"/>
</g>
<!-- tens_bottomblock_milling&#45;&gt;tens_bottomblock -->
<g id="edge42" class="edge">
<title>tens_bottomblock_milling&#45;&gt;tens_bottomblock</title>
<path fill="none" stroke="#000000" d="M1317.1787,-469.9759C1305.4467,-467.1965 1293.4028,-464.442 1282,-462 1205.5519,-445.6278 1117.8047,-429.612 1055.7524,-418.7473"/>
<polygon fill="#000000" stroke="#000000" points="1056.0871,-415.2528 1045.6343,-416.9814 1054.8836,-422.1486 1056.0871,-415.2528"/>
</g>
<!-- tens_bottomblock&#45;&gt;tens_support_assembly -->
<g id="edge51" class="edge">
<title>tens_bottomblock&#45;&gt;tens_support_assembly</title>
<path fill="none" stroke="#000000" d="M932.3209,-388.8984C898.2535,-376.0456 850.1882,-357.9119 812.6924,-343.7658"/>
<polygon fill="#000000" stroke="#000000" points="813.5028,-340.3308 802.911,-340.0755 811.0318,-346.8802 813.5028,-340.3308"/>
</g>
<!-- tens_spacer_cutting -->
<g id="node42" class="node">
<title>tens_spacer_cutting</title>
<polygon fill="#ffffff" stroke="#00ffff" stroke-width="3" points="2570,-744 2408,-744 2408,-708 2570,-708 2570,-744"/>
<text text-anchor="middle" x="2489" y="-722.3" font-family="Times,serif" font-size="14.00" fill="#000000">tens_spacer_cutting</text>
</g>
<!-- tens_spacer_material&#45;&gt;tens_spacer_cutting -->
<g id="edge44" class="edge">
<title>tens_spacer_material&#45;&gt;tens_spacer_cutting</title>
<path fill="none" stroke="#000000" d="M2500.2149,-779.8314C2498.6106,-772.131 2496.703,-762.9743 2494.9201,-754.4166"/>
<polygon fill="#000000" stroke="#000000" points="2498.3021,-753.4892 2492.8361,-744.4133 2491.4493,-754.9169 2498.3021,-753.4892"/>
</g>
<!-- tens_spacer -->
<g id="node43" class="node">
<title>tens_spacer</title>
<ellipse fill="#ffffff" stroke="#000000" stroke-width="3" cx="2476" cy="-643" rx="66.8882" ry="18"/>
<text text-anchor="middle" x="2476" y="-639.3" font-family="Times,serif" font-size="14.00" fill="#000000">tens_spacer</text>
</g>
<!-- tens_spacer_cutting&#45;&gt;tens_spacer -->
<g id="edge45" class="edge">
<title>tens_spacer_cutting&#45;&gt;tens_spacer</title>
<path fill="none" stroke="#000000" d="M2486.1792,-707.9902C2484.5042,-697.2963 2482.3433,-683.4994 2480.4436,-671.3706"/>
<polygon fill="#000000" stroke="#000000" points="2483.8655,-670.5992 2478.8602,-661.2612 2476.9498,-671.6824 2483.8655,-670.5992"/>
</g>
<!-- tens_spacer&#45;&gt;tens_shaft_testing -->
<g id="edge54" class="edge">
<title>tens_spacer&#45;&gt;tens_shaft_testing</title>
<path fill="none" stroke="#000000" d="M2475.1551,-624.7197C2473.2469,-583.432 2468.5924,-482.7265 2466.3081,-433.3027"/>
<polygon fill="#000000" stroke="#000000" points="2469.7908,-432.8445 2465.8327,-423.0168 2462.7982,-433.1677 2469.7908,-432.8445"/>
</g>
<!-- tens_sprocket_borewidening -->
<g id="node45" class="node">
<title>tens_sprocket_borewidening</title>
<polygon fill="#ffffff" stroke="#00ffff" stroke-width="3" points="2860.5,-744 2637.5,-744 2637.5,-708 2860.5,-708 2860.5,-744"/>
<text text-anchor="middle" x="2749" y="-722.3" font-family="Times,serif" font-size="14.00" fill="#000000">tens_sprocket_borewidening</text>
</g>
<!-- tens_sprocket_base&#45;&gt;tens_sprocket_borewidening -->
<g id="edge47" class="edge">
<title>tens_sprocket_base&#45;&gt;tens_sprocket_borewidening</title>
<path fill="none" stroke="#000000" d="M2746.0094,-779.8314C2746.4372,-772.131 2746.9459,-762.9743 2747.4213,-754.4166"/>
<polygon fill="#000000" stroke="#000000" points="2750.9169,-754.592 2747.977,-744.4133 2743.9276,-754.2037 2750.9169,-754.592"/>
</g>
<!-- tens_sprocket -->
<g id="node46" class="node">
<title>tens_sprocket</title>
<ellipse fill="#ffffff" stroke="#000000" stroke-width="3" cx="2732" cy="-643" rx="76.8869" ry="18"/>
<text text-anchor="middle" x="2732" y="-639.3" font-family="Times,serif" font-size="14.00" fill="#000000">tens_sprocket</text>
</g>
<!-- tens_sprocket_borewidening&#45;&gt;tens_sprocket -->
<g id="edge48" class="edge">
<title>tens_sprocket_borewidening&#45;&gt;tens_sprocket</title>
<path fill="none" stroke="#000000" d="M2745.3113,-707.9902C2743.1209,-697.2963 2740.2951,-683.4994 2737.8108,-671.3706"/>
<polygon fill="#000000" stroke="#000000" points="2741.1757,-670.3555 2735.7403,-661.2612 2734.318,-671.7602 2741.1757,-670.3555"/>
</g>
<!-- tens_sprocket&#45;&gt;tens_shaft_testing -->
<g id="edge55" class="edge">
<title>tens_sprocket&#45;&gt;tens_shaft_testing</title>
<path fill="none" stroke="#000000" d="M2712.3669,-625.4993C2665.5345,-583.7536 2547.1433,-478.2213 2492.9105,-429.879"/>
<polygon fill="#000000" stroke="#000000" points="2495.1844,-427.2173 2485.3906,-423.1759 2490.5265,-432.4427 2495.1844,-427.2173"/>
</g>
<!-- tens_support -->
<g id="node48" class="node">
<title>tens_support</title>
<ellipse fill="#ffffff" stroke="#000000" stroke-width="3" cx="765" cy="-250" rx="71.4873" ry="18"/>
<text text-anchor="middle" x="765" y="-246.3" font-family="Times,serif" font-size="14.00" fill="#000000">tens_support</text>
</g>
<!-- tens_support_assembly&#45;&gt;tens_support -->
<g id="edge52" class="edge">
<title>tens_support_assembly&#45;&gt;tens_support</title>
<path fill="none" stroke="#000000" d="M757.5234,-303.8314C758.5929,-296.131 759.8647,-286.9743 761.0532,-278.4166"/>
<polygon fill="#000000" stroke="#000000" points="764.5336,-278.7997 762.4426,-268.4133 757.6001,-277.8367 764.5336,-278.7997"/>
</g>
<!-- tens_support&#45;&gt;tens_mounting -->
<g id="edge60" class="edge">
<title>tens_support&#45;&gt;tens_mounting</title>
<path fill="none" stroke="#000000" d="M835.7158,-246.9979C1111.1516,-235.3049 2110.6539,-192.8732 2388.7539,-181.0671"/>
<polygon fill="#000000" stroke="#000000" points="2389.2784,-184.548 2399.1209,-180.6269 2388.9814,-177.5543 2389.2784,-184.548"/>
</g>
<!-- tens_shaft_testing&#45;&gt;tens_shaft_assembly -->
<g id="edge57" class="edge">
<title>tens_shaft_testing&#45;&gt;tens_shaft_assembly</title>
<path fill="none" stroke="#000000" d="M2464.1321,-386.9902C2463.6167,-376.2963 2462.9518,-362.4994 2462.3673,-350.3706"/>
<polygon fill="#000000" stroke="#000000" points="2465.8575,-350.0811 2461.8801,-340.2612 2458.8656,-350.4182 2465.8575,-350.0811"/>
</g>
<!-- tens_shaft -->
<g id="node51" class="node">
<title>tens_shaft</title>
<ellipse fill="#ffffff" stroke="#000000" stroke-width="3" cx="2461" cy="-250" rx="59.2899" ry="18"/>
<text text-anchor="middle" x="2461" y="-246.3" font-family="Times,serif" font-size="14.00" fill="#000000">tens_shaft</text>
</g>
<!-- tens_shaft_assembly&#45;&gt;tens_shaft -->
<g id="edge58" class="edge">
<title>tens_shaft_assembly&#45;&gt;tens_shaft</title>
<path fill="none" stroke="#000000" d="M2461,-303.8314C2461,-296.131 2461,-286.9743 2461,-278.4166"/>
<polygon fill="#000000" stroke="#000000" points="2464.5001,-278.4132 2461,-268.4133 2457.5001,-278.4133 2464.5001,-278.4132"/>
</g>
<!-- tens_shaft&#45;&gt;tens_mounting -->
<g id="edge61" class="edge">
<title>tens_shaft&#45;&gt;tens_mounting</title>
<path fill="none" stroke="#000000" d="M2461,-231.8314C2461,-224.131 2461,-214.9743 2461,-206.4166"/>
<polygon fill="#000000" stroke="#000000" points="2464.5001,-206.4132 2461,-196.4133 2457.5001,-206.4133 2464.5001,-206.4132"/>
</g>
<!-- tens -->
<g id="node53" class="node">
<title>tens</title>
<ellipse fill="#ffffff" stroke="#000000" stroke-width="3" cx="2461" cy="-106" rx="30.5947" ry="18"/>
<text text-anchor="middle" x="2461" y="-102.3" font-family="Times,serif" font-size="14.00" fill="#000000">tens</text>
</g>
<!-- tens_mounting&#45;&gt;tens -->
<g id="edge62" class="edge">
<title>tens_mounting&#45;&gt;tens</title>
<path fill="none" stroke="#000000" d="M2461,-159.8314C2461,-152.131 2461,-142.9743 2461,-134.4166"/>
<polygon fill="#000000" stroke="#000000" points="2464.5001,-134.4132 2461,-124.4133 2457.5001,-134.4133 2464.5001,-134.4132"/>
</g>
</g>
</svg>
